<svg viewBox="0 0 120 32" fill="none" xmlns="http://www.w3.org/2000/svg">
  <path d="M16 0C7.163 0 0 7.163 0 16s7.163 16 16 16 16-7.163 16-16S24.837 0 16 0zm0 28c-6.627 0-12-5.373-12-12S9.373 4 16 4s12 5.373 12 12-5.373 12-12 12z" fill="#E84125"/>
  <path d="M16 8c-4.418 0-8 3.582-8 8s3.582 8 8 8 8-3.582 8-8-3.582-8-8-8zm0 12c-2.209 0-4-1.791-4-4s1.791-4 4-4 4 1.791 4 4-1.791 4-4 4z" fill="#E84125"/>
  <path d="M44.8 8.4h3.2v6.4h6.4V8.4h3.2v16h-3.2v-6.8H48v6.8h-3.2v-16z" fill="currentColor"/>
  <path d="M62.4 14c0-3.2 2.4-5.8 6-5.8 3.6 0 5.8 2.4 5.8 5.6v1.2H65.4c.2 1.8 1.4 3 3.2 3 1.4 0 2.4-.6 3-1.6l2.4 1.4c-1 1.8-3 3-5.6 3-3.8 0-6-2.6-6-5.8zm3-1h5.8c-.2-1.6-1.2-2.6-2.8-2.6-1.6 0-2.8 1-3 2.6z" fill="currentColor"/>
  <path d="M78.2 6.4h3v17.2h-3V6.4z" fill="currentColor"/>
  <path d="M85.8 8.4h3v10.4c0 1.2.6 2 2 2s2-.8 2-2V8.4h3v10.6c0 3.2-2 5-5 5s-5-1.8-5-5V8.4z" fill="currentColor"/>
  <path d="M99.8 19.8l2.4-1.6c.6 1.2 1.6 2 3.2 2 1.2 0 2-.6 2-1.4 0-1-.8-1.4-2.4-1.8-2.4-.6-4.4-1.6-4.4-4.2 0-2.4 2-4.2 4.8-4.2 2.2 0 4 1 5 2.8l-2.4 1.6c-.6-1-1.4-1.6-2.6-1.6-1 0-1.8.6-1.8 1.4 0 .8.6 1.2 2 1.6 2.6.6 4.8 1.6 4.8 4.4 0 2.6-2.2 4.4-5.2 4.4-2.6 0-4.6-1.2-5.4-3.4z" fill="currentColor"/>
</svg>
