<svg viewBox="0 0 520 120" fill="none" xmlns="http://www.w3.org/2000/svg">
  <!-- Sun/Star icon -->
  <g fill="#E54D2E">
    <circle cx="60" cy="60" r="25"/>
    <circle cx="60" cy="60" r="15" fill="white"/>
    <!-- Rays -->
    <polygon points="60,5 65,25 60,20 55,25"/>
    <polygon points="60,115 55,95 60,100 65,95"/>
    <polygon points="5,60 25,55 20,60 25,65"/>
    <polygon points="115,60 95,65 100,60 95,55"/>
    <polygon points="21,21 38,32 32,32 32,38"/>
    <polygon points="99,99 82,88 88,88 88,82"/>
    <polygon points="21,99 32,82 32,88 38,88"/>
    <polygon points="99,21 88,38 88,32 82,32"/>
  </g>
  <!-- HELIUS text -->
  <g fill="#E54D2E">
    <!-- H -->
    <path d="M150 25h14v30h28V25h14v70h-14V67h-28v28h-14V25z"/>
    <!-- E -->
    <path d="M220 25h50v12h-36v16h32v12h-32v18h36v12h-50V25z"/>
    <!-- L -->
    <path d="M285 25h14v58h34v12h-48V25z"/>
    <!-- I -->
    <path d="M345 25h14v70h-14V25z"/>
    <!-- U -->
    <path d="M375 25h14v45c0 8 5 13 15 13s15-5 15-13V25h14v45c0 17-11 27-29 27s-29-10-29-27V25z"/>
    <!-- S -->
    <path d="M450 67l9-10c5 6 13 10 21 10 9 0 13-4 13-9 0-6-5-8-15-10-14-4-24-9-24-22 0-13 10-22 27-22 12 0 22 5 28 12l-9 10c-5-6-12-9-19-9-8 0-13 4-13 9 0 5 5 7 15 10 14 3 24 9 24 22 0 14-11 24-28 24-13 0-24-5-29-15z"/>
  </g>
</svg>
